<?xml version="1.0" encoding="UTF-8"?>
<svg width="600px" height="400px" viewBox="0 0 600 400" version="1.1" xmlns="http://www.w3.org/2000/svg" xmlns:xlink="http://www.w3.org/1999/xlink">
    <!-- Generator: Sketch 41.1 (35376) - http://www.bohemiancoding.com/sketch -->
    <title>Artboard</title>
    <desc>Created with Sketch.</desc>
    <defs></defs>
    <g id="Page-1" stroke="none" stroke-width="1" fill="none" fill-rule="evenodd">
        <g id="Artboard">
            <g id="Group-2" transform="translate(92.000000, 64.000000)">
                <path d="M49.7284175,32.1384874 L37.5197836,1.68706718 C37.4885992,1.62469837 37.4106393,1.56233049 37.2859017,1.49996168 L33.3099098,1.49996168 C33.1539878,1.53114608 33.076028,1.59351396 33.076028,1.68706718 L20.8206177,32.1384874 L20.8206177,32.2320401 L20.7738413,32.2788165 C20.7738413,32.3411853 20.8206172,32.3723693 20.9141704,32.3723693 L25.3579261,32.3723693 C25.4826637,32.3723693 25.5606235,32.3411853 25.5918079,32.2788165 L28.4919432,24.981702 L42.1038683,24.981702 L45.0040036,32.2788165 C45.035188,32.3411853 45.1131479,32.3723693 45.2378855,32.3723693 L49.6348647,32.3723693 C49.728418,32.3723693 49.7751939,32.3411853 49.7751939,32.2788165 L49.7284175,32.2320401 L49.7284175,32.1384874 Z M40.3263661,20.5847227 L30.2694454,20.5847227 L35.2745176,8.00187782 L40.3263661,20.5847227 Z M75.9855561,21.2863683 C75.6425276,19.8207013 74.909705,18.4642 73.7870664,17.2168237 C72.6644278,15.9694475 71.4014783,15.1586651 69.99818,14.7844522 C69.8734424,14.7532678 69.8110745,14.7064919 69.8110745,14.6441231 C69.8110745,14.5817543 69.8890344,14.5037944 70.0449564,14.4102412 C70.4815381,14.1295816 70.8869293,13.7319863 71.2611422,13.2174436 C71.635355,12.7029009 71.9316025,12.18057 72.1498933,11.6504351 C72.4929218,10.9020093 72.6644334,10.0912269 72.6644334,9.21806357 C72.6644334,8.46963783 72.5474937,7.72122331 72.3136106,6.97279757 C72.0797276,6.22437182 71.7600922,5.53832518 71.3546949,4.91463706 C70.3879783,3.48015438 69.1250288,2.55243222 67.5658085,2.13144274 C66.0065882,1.71045326 63.7145688,1.49996168 60.6896814,1.49996168 L55.1700691,1.49996168 L55.02974,1.68706718 L55.02974,32.3723693 L58.7250736,32.3723693 C61.9058831,32.3411848 64.2602704,32.3255929 65.7883063,32.3255929 C67.1292357,32.3255929 68.3843893,32.1618772 69.5538045,31.8344409 C70.7232197,31.5070047 71.7756776,30.9690817 72.7112098,30.220656 C73.8338484,29.378677 74.6992027,28.3574031 75.3072986,27.1568034 C75.9153945,25.9562038 76.2194379,24.6854583 76.2194379,23.3445289 C76.2194379,22.6584719 76.1414781,21.9724253 75.9855561,21.2863683 Z M67.378703,8.46964157 C67.5034407,8.87503885 67.5658085,9.26483807 67.5658085,9.63905095 C67.5658085,10.5122143 67.3007451,11.2606288 66.7706102,11.884317 C66.3028441,12.4768207 65.7415332,12.8666199 65.0866607,13.0537263 C64.4317881,13.2408328 63.5898218,13.3655685 62.5607364,13.4279373 L59.4267193,13.4279373 L59.4267193,5.89694094 C59.4579037,5.89694094 59.7697431,5.88134897 60.3622468,5.85016456 L61.765538,5.85016456 C63.2000207,5.85016456 64.4317863,6.02947221 65.4608717,6.38809288 C66.4899571,6.74671355 67.1292278,7.44055617 67.378703,8.46964157 Z M70.4659438,20.7718282 C70.7777879,21.676176 70.9337075,22.5025504 70.9337075,23.2509761 C70.9337075,24.2176927 70.699828,25.0440671 70.2320619,25.730124 C69.7954802,26.4161809 69.2185774,26.9151239 68.501336,27.226968 C67.7840947,27.538812 66.9733123,27.7415076 66.0689645,27.8350609 L64.8060024,27.8350609 C63.2779665,27.8662453 61.4848901,27.8818372 59.4267193,27.8818372 L59.4267193,17.7781402 L63.5898167,17.7781402 C65.2737746,17.8716934 66.7550116,18.1367569 68.0335723,18.5733386 C69.3121329,19.0099203 70.1229153,19.7427428 70.4659438,20.7718282 Z M108.510729,8.56319432 L108.463953,4.07266231 L108.230071,3.69845131 C106.826772,2.76291913 105.228596,2.04568855 103.435492,1.54673805 C101.642389,1.04778756 99.8103325,0.79831605 97.9392681,0.79831605 C96.1929414,0.79831605 94.5090087,1.0243996 92.8874196,1.47657349 C91.2658305,1.92874738 89.8313693,2.59140606 88.5839931,3.46456943 C86.3075314,5.08615854 84.5612309,7.06633862 83.3450391,9.40516907 C82.1288472,11.7439995 81.5207604,14.2698985 81.5207604,16.9829418 L81.5207604,17.6845875 C81.5519449,18.0276159 81.5675368,18.2770874 81.5675368,18.4330095 C81.7858277,21.1460528 82.6979579,23.6797478 84.3039548,26.0341704 C85.9099517,28.3885931 87.9602956,30.1582816 90.4550481,31.343289 C92.5755877,32.3723744 94.9767509,32.8869094 97.6586099,32.8869094 C99.6232274,32.8869094 101.556632,32.590662 103.45888,31.9981583 C105.361129,31.4056545 107.013878,30.5792802 108.417176,29.5190104 L108.417176,24.8881492 C108.417176,24.638674 108.401584,24.4671623 108.3704,24.3736091 C106.468151,25.6521698 104.667279,26.6500558 102.967728,27.3672971 C101.268178,28.0845385 99.5296738,28.4431537 97.7521626,28.4431537 C96.4424176,28.4431537 95.1638761,28.2248662 93.9164998,27.7882845 C92.9497833,27.445256 92.0220611,26.954109 91.1333055,26.3148287 C90.24455,25.6755484 89.4415636,24.9349298 88.7243222,24.0929509 C88.0070809,23.2509719 87.422382,22.3310457 86.9702081,21.3331447 C86.5180343,20.3352437 86.2451748,19.3373577 86.1516216,18.3394567 L86.1516216,17.7781402 C86.1204372,17.4662962 86.1048452,17.2791925 86.1048452,17.2168237 C86.1048452,15.1586529 86.5570123,13.2642287 87.4613601,11.5334941 C88.3657079,9.80275961 89.6910252,8.37609443 91.437352,7.25345582 C93.2148631,6.06844839 95.3353709,5.47595356 97.798939,5.47595356 C99.4517125,5.47595356 101.104461,5.72542507 102.757235,6.22437556 C104.410008,6.72332606 105.906837,7.4093727 107.247767,8.28253607 L107.762307,8.51641794 C108.074151,8.67233997 108.261255,8.75029982 108.323623,8.75029982 C108.385992,8.75029982 108.44836,8.68793194 108.510729,8.56319432 Z M142.766628,16.8893891 C142.766628,14.1763458 142.103969,11.6660387 140.778632,9.3583927 C139.453294,7.05074665 137.668014,5.2108943 135.422737,3.83878043 C134.144176,3.02798588 132.865635,2.43549105 131.587074,2.06127818 C130.308513,1.68706531 128.811684,1.49996168 127.096542,1.49996168 L116.337976,1.49996168 C116.213238,1.49996168 116.15087,1.56232955 116.15087,1.68706718 L116.15087,32.2320401 C116.15087,32.3255933 116.197646,32.3723693 116.291199,32.3723693 L127.236871,32.3723693 C129.326226,32.3723693 131.321998,31.974774 133.224247,31.1795717 C135.126496,30.3843693 136.794837,29.2695435 138.229319,27.8350609 C139.663802,26.4005782 140.778628,24.7400335 141.57383,22.8533769 C142.369032,20.9667204 142.766628,18.9787443 142.766628,16.8893891 Z M138.416425,16.8893891 C138.416425,18.3862406 138.127973,19.8129058 137.551062,21.1694274 C136.97415,22.5259491 136.17896,23.7109387 135.165467,24.7244319 C134.151973,25.7379251 132.966984,26.5331155 131.610462,27.1100271 C130.25394,27.6869386 128.827275,27.97539 127.330424,27.97539 L120.547849,27.97539 L120.547849,5.89694094 L127.049766,5.89694094 C128.546617,5.89694094 129.988874,6.17759638 131.37658,6.73891569 C132.764286,7.300235 133.988256,8.08762944 135.048526,9.10112263 C136.108796,10.1146158 136.93517,11.2918095 137.527674,12.632739 C138.120177,13.9736684 138.416425,15.3925376 138.416425,16.8893891 Z M169.538306,32.2320401 L169.538306,28.1624955 C169.538306,28.0689423 169.49153,28.0221664 169.397977,28.0221664 L153.868221,28.0221664 L153.868221,18.0120221 C153.868221,17.8872845 153.914997,17.8093246 154.00855,17.7781402 L164.673563,17.7781402 C164.829485,17.7781402 164.907445,17.7157723 164.907445,17.5910347 L164.907445,13.5214901 C164.907445,13.4279369 164.860669,13.381161 164.767116,13.381161 L153.868221,13.381161 L153.868221,5.99049369 L154.242432,5.94371731 L168.602779,5.94371731 C168.727516,5.94371731 168.789884,5.88134944 168.789884,5.75661181 L168.789884,1.68706718 C168.789884,1.59351396 168.727516,1.54673805 168.602779,1.54673805 L149.658347,1.54673805 C149.564794,1.54673805 149.502426,1.59351396 149.471241,1.68706718 L149.471241,32.2320401 C149.53361,32.3255933 149.61157,32.3879612 149.705123,32.4191456 L169.351201,32.4191456 C169.475938,32.4191456 169.538306,32.3567778 169.538306,32.2320401 Z M195.561563,5.70983544 L195.561563,1.6402908 C195.561563,1.54673758 195.499195,1.49996168 195.374457,1.49996168 L176.430026,1.49996168 C176.305288,1.49996168 176.24292,1.54673758 176.24292,1.6402908 L176.24292,32.2320401 C176.24292,32.3255933 176.305288,32.3723693 176.430026,32.3723693 L180.452794,32.3723693 C180.577531,32.3723693 180.639899,32.3100014 180.639899,32.1852638 L180.639899,18.0587985 C180.639899,17.9652452 180.678879,17.8950814 180.75684,17.8483048 C180.834801,17.8015282 180.904965,17.7625482 180.967334,17.7313638 L191.445242,17.7313638 C191.601164,17.7313638 191.679124,17.668996 191.679124,17.5442583 L191.679124,13.4747137 C191.679124,13.3811605 191.632348,13.3343846 191.538795,13.3343846 L180.639899,13.3343846 L180.639899,5.99049369 L181.01411,5.89694094 L195.374457,5.89694094 C195.499195,5.89694094 195.561563,5.83457306 195.561563,5.70983544 Z M228.133512,29.3786812 L228.133512,15.1586632 L228.039959,15.0183341 L217.655604,15.0183341 L217.655604,19.1814315 L217.702381,19.2749842 L223.455875,19.2749842 L223.64298,19.4620897 L223.64298,26.9463097 C221.428887,28.193686 219.136868,28.8173647 216.766853,28.8173647 C215.800136,28.8173647 214.833434,28.708221 213.866718,28.4899301 C212.868817,28.2404549 211.870931,27.8194717 210.87303,27.226968 C209.875129,26.6344643 208.962999,25.9172337 208.136612,25.0752547 C207.310225,24.2332758 206.624178,23.3133496 206.078451,22.3154486 C205.532724,21.3175476 205.197497,20.3040696 205.072759,19.2749842 C204.979206,18.5577429 204.93243,17.8561043 204.93243,17.1700473 C204.93243,15.1118765 205.345617,13.2096563 206.172004,11.4633296 C206.998391,9.71700284 208.253544,8.28254168 209.937502,7.15990307 C211.808567,5.88134242 214.007034,5.24207169 216.532971,5.24207169 C218.404036,5.24207169 220.29846,5.56950304 222.216301,6.22437556 C224.134142,6.87924809 225.888238,7.72121442 227.478643,8.75029982 L227.478643,3.46456943 C224.890337,2.03008676 222.255294,1.17252845 219.573436,0.891868801 C218.606719,0.798315583 217.655609,0.751539675 216.720077,0.751539675 C214.630721,0.751539675 212.868829,0.969827243 211.434346,1.40640893 C210.218154,1.74943739 209.040961,2.27956434 207.90273,2.99680568 C206.764499,3.71404702 205.719837,4.56380934 204.768713,5.54611812 C203.817588,6.52842691 202.99901,7.5964768 202.312953,8.75029982 C201.626896,9.90412284 201.112361,11.1047045 200.769333,12.3520807 C200.332751,13.911301 200.114463,15.4860899 200.114463,17.0764946 C200.114463,18.9475589 200.410711,20.7484314 201.003215,22.4791659 C201.595718,24.2099004 202.453277,25.7924853 203.575915,27.226968 C205.135136,29.1915856 207.02956,30.6650266 209.259245,31.6473354 C211.48893,32.6296442 213.897889,33.1207913 216.486195,33.1207913 C218.29489,33.1207913 220.150335,32.8713197 222.052583,32.3723693 C223.237591,32.0917096 224.313437,31.7175023 225.280153,31.2497362 C226.24687,30.7819702 227.19798,30.1582914 228.133512,29.3786812 Z M260.939343,32.1852638 L260.939343,1.59351443 C260.939343,1.49996121 260.908159,1.4531853 260.845791,1.4531853 L256.729469,1.4531853 C256.635916,1.4531853 256.573548,1.49996121 256.542364,1.59351443 L256.542364,13.1005027 L256.448811,13.2408318 L240.59162,13.2408318 C240.466882,13.2096474 240.373331,13.1472795 240.310962,13.0537263 C240.248593,12.9601731 240.217409,12.8822133 240.217409,12.8198445 L240.217409,1.8273963 L240.170633,1.8273963 L240.170633,1.6402908 C240.170633,1.51555318 240.123857,1.4531853 240.030304,1.4531853 L235.960759,1.4531853 C235.836021,1.4531853 235.773653,1.51555318 235.773653,1.6402908 L235.773653,32.1852638 C235.773653,32.3100014 235.836021,32.3723693 235.960759,32.3723693 L239.983527,32.3723693 C240.108265,32.3723693 240.170633,32.3100014 240.170633,32.1852638 L240.170633,17.8249166 L240.357738,17.6378111 L256.542364,17.6378111 L256.542364,32.1852638 C256.542364,32.278817 256.604732,32.3255929 256.729469,32.3255929 L260.752238,32.3255929 C260.876975,32.3255929 260.939343,32.278817 260.939343,32.1852638 Z M273.444228,32.1852638 L273.444228,1.6402908 C273.444228,1.54673758 273.397452,1.49996168 273.303898,1.49996168 L269.234354,1.49996168 C269.109616,1.49996168 269.047248,1.56232955 269.047248,1.68706718 L269.047248,32.2320401 C269.047248,32.3255933 269.094024,32.3723693 269.187577,32.3723693 L273.257122,32.3723693 C273.38186,32.3723693 273.444228,32.3100014 273.444228,32.1852638 Z M296.006032,24.3268327 L296.006032,1.78061993 C295.974848,1.59351349 295.881296,1.49996168 295.725374,1.49996168 L291.842935,1.49996168 L291.609053,1.68706718 L291.609053,22.1283431 C291.609053,23.812301 291.507705,25.1142304 291.305007,26.0341704 C291.102308,26.9541104 290.611161,27.679137 289.831551,28.2092719 C289.145494,28.677038 288.31912,28.9109175 287.352403,28.9109175 C286.728715,28.9109175 286.167404,28.7861817 285.668454,28.5367065 C285.107134,28.2560468 284.615987,27.8350637 284.194998,27.2737444 C283.774008,26.7124251 283.547925,26.1355222 283.51674,25.5430185 C283.360818,25.6053873 282.955427,25.776899 282.300555,26.0575586 C281.021994,26.6500623 280.148844,27.0554535 279.681078,27.2737444 C279.712262,28.2092765 280.024101,29.0980188 280.616605,29.9399977 C281.209109,30.7819767 281.941931,31.4836153 282.815095,32.0449346 C284.062471,32.8245448 285.574892,33.214344 287.352403,33.214344 C289.348205,33.214344 291.04773,32.7465849 292.451028,31.8110528 C293.698404,30.9690738 294.602738,29.9088199 295.164058,28.6302592 C295.725377,27.3516986 296.006032,25.9172374 296.006032,24.3268327 Z M329.419956,32.0449346 L312.112698,14.7844522 L327.081138,2.15483093 C327.143506,2.09246212 327.17469,2.03009424 327.17469,1.96772543 C327.17469,1.8429878 327.127915,1.78061993 327.034361,1.78061993 L320.953433,1.78061993 C320.766326,1.78061993 320.610406,1.8429878 320.485669,1.96772543 L308.510917,12.0714225 L308.510917,1.6402908 C308.510917,1.54673758 308.464141,1.49996168 308.370588,1.49996168 L304.301043,1.49996168 C304.176305,1.49996168 304.113937,1.56232955 304.113937,1.68706718 L304.113937,32.2320401 C304.113937,32.3255933 304.176305,32.3723693 304.301043,32.3723693 L308.323811,32.3723693 C308.448549,32.3723693 308.510917,32.3100014 308.510917,32.1852638 L308.510917,17.8249166 C308.542101,17.6689946 308.604469,17.5910347 308.698022,17.5910347 L308.698022,17.6378111 L308.744799,17.6378111 C308.931905,17.8249175 310.834125,19.7193418 314.451516,23.3211407 C318.068907,26.9229396 320.306355,29.1603871 321.163926,30.0335505 C322.021497,30.9067139 322.730932,31.6239444 323.292251,32.1852638 C323.416989,32.3100014 323.541725,32.3723693 323.666462,32.3723693 L329.37318,32.3723693 C329.435549,32.3723693 329.466733,32.3255933 329.466733,32.2320401 C329.466733,32.2008557 329.451141,32.1696718 329.419956,32.1384874 L329.419956,32.0449346 Z M354.180251,32.1852638 L354.180251,28.1157191 C354.180251,28.0221659 354.133475,27.97539 354.039922,27.97539 L339.586022,27.97539 L339.586022,1.6402908 C339.586022,1.54673758 339.539246,1.49996168 339.445693,1.49996168 L335.376148,1.49996168 C335.251411,1.49996168 335.189043,1.54673758 335.189043,1.6402908 L335.189043,32.2320401 C335.189043,32.3255933 335.235819,32.3723693 335.329372,32.3723693 L353.993145,32.3723693 C354.117883,32.3723693 354.180251,32.3100014 354.180251,32.1852638 Z M390.821745,32.1852638 L390.821745,1.6402908 C390.821745,1.54673758 390.774969,1.49996168 390.681416,1.49996168 L386.611871,1.49996168 C386.487133,1.49996168 386.424766,1.56232955 386.424766,1.68706718 C385.738709,2.52904614 384.951314,3.51134019 384.062559,4.63397881 C383.173803,5.75661743 381.80171,7.47953001 379.946238,9.80276826 C378.090765,12.1260065 376.97594,13.5292837 376.601727,14.012642 C376.227514,14.4960003 375.884491,14.9247795 375.572647,15.2989923 C375.260802,14.9247795 374.800839,14.3556726 374.192743,13.5916546 C373.584648,12.8276367 372.602353,11.6114631 371.245832,9.94309739 C369.88931,8.27473166 368.641953,6.75451468 367.503722,5.38240081 C366.365491,4.01028695 365.313033,2.76292942 364.346317,1.6402908 C364.346317,1.54673758 364.315133,1.49996168 364.252764,1.49996168 L360.136443,1.49996168 C360.011705,1.49996168 359.949337,1.56232955 359.949337,1.68706718 L359.949337,32.2320401 C359.949337,32.3255933 360.011705,32.3723693 360.136443,32.3723693 L364.159211,32.3723693 C364.283949,32.3723693 364.346317,32.3100014 364.346317,32.1852638 L364.346317,7.86154869 C367.683048,11.7907838 371.409529,16.3280469 375.52587,21.4734739 L375.666199,21.4734739 C376.508178,20.5379417 377.443696,19.4465038 378.472782,18.1991276 C379.501867,16.9517514 380.538733,15.6654139 381.583411,14.3400766 C382.628088,13.0147394 383.641566,11.720606 384.623875,10.4576375 L386.424766,8.14220694 L386.424766,32.2320401 C386.424766,32.3255933 386.487133,32.3723693 386.611871,32.3723693 L390.634639,32.3723693 C390.759377,32.3723693 390.821745,32.3100014 390.821745,32.1852638 Z M28.1645086,60.1575361 C28.1645086,60.0327984 28.1021407,59.9704306 27.9774031,59.9704306 L23.9546348,59.9704306 C23.8298972,59.9704306 23.7675293,60.0327984 23.7675293,60.1575361 L23.7675293,83.8731583 L5.29086114,60.1575361 C5.19730792,60.0327984 5.07257217,59.9704306 4.91665014,59.9704306 L0.8471055,59.9704306 C0.722367876,59.9704306 0.66,60.0327984 0.66,60.1575361 L0.66,90.702509 C0.66,90.7960622 0.722367876,90.8428381 0.8471055,90.8428381 L4.86987376,90.8428381 C4.99461138,90.8428381 5.05697926,90.7804703 5.05697926,90.6557326 L5.05697926,67.1739923 L23.3465419,90.7492854 L23.3465419,90.7960618 C23.3777263,90.8272462 23.4400942,90.8428381 23.5336474,90.8428381 L27.9774031,90.8428381 C28.1021407,90.8428381 28.1645086,90.7804703 28.1645086,90.6557326 L28.1645086,60.1575361 Z M64.6188969,82.844078 C65.8039043,80.536432 66.3963992,77.9325731 66.3963992,75.0324234 C66.3963992,73.3796498 66.1859076,71.797065 65.7649181,70.2846213 C65.3439286,68.7721776 64.7124539,67.4234723 63.8704749,66.2384648 C62.5607299,64.3674005 61.0171249,62.8159995 59.2396138,61.5842155 C57.4621026,60.3524315 55.5910663,59.596221 53.6264488,59.3155613 C52.6909166,59.1908237 51.7865824,59.1284558 50.913419,59.1284558 C48.605773,59.1284558 46.4073053,59.5806229 44.3179501,60.4849707 C42.2285949,61.3893185 40.3887425,62.7302278 38.7983378,64.507739 C37.5197772,65.9422216 36.5452791,67.6027663 35.8748144,69.4894229 C35.2043497,71.3760795 34.8691223,73.3328716 34.8691223,75.359858 C34.8691223,77.7298728 35.3056975,79.9439325 36.1788608,82.0021032 C36.7713645,83.4054015 37.566555,84.691739 38.564456,85.8611542 C39.562357,87.0305694 40.7083667,88.0362514 42.0025195,88.8782304 C43.2966724,89.7202093 44.6843576,90.3672761 46.1656169,90.81945 C47.6468762,91.2716238 49.1670932,91.4977074 50.7263135,91.4977074 C53.5952788,91.466523 56.2926895,90.6713326 58.8186264,89.1121123 C61.3445633,87.552892 63.2779674,85.4635681 64.6188969,82.844078 Z M60.7832341,70.6822205 C61.3445535,72.1478876 61.6252089,73.6759005 61.6252089,75.2663052 C61.6252089,76.8878943 61.3289615,78.4392953 60.7364578,79.9205546 C60.1439541,81.4018138 59.2708038,82.6569674 58.1169808,83.6860528 C55.8405191,85.7130391 53.2990282,86.7265171 50.4924316,86.7265171 C49.8063747,86.7265171 49.120328,86.6641493 48.4342711,86.5394116 C46.7503132,86.1963832 45.1521364,85.3856008 43.6396927,84.1070401 C42.127249,82.8284795 41.0747911,81.3628344 40.4822873,79.7100609 C39.9521524,78.3067626 39.687089,76.8255255 39.687089,75.2663052 C39.687089,73.7694537 39.9443565,72.3271966 40.4588992,70.9394905 C40.9734419,69.5517845 41.7140604,68.3278149 42.680777,67.2675451 C43.678678,66.1760909 44.8792596,65.3419205 46.2825579,64.765009 C47.6858561,64.1880975 49.1359093,63.8996461 50.6327607,63.8996461 C52.0048746,63.8996461 53.330192,64.1335256 54.6087526,64.6012917 C55.9184977,65.0690578 57.1502632,65.8720442 58.3040863,67.010275 C59.4579093,68.1485058 60.2842836,69.3724754 60.7832341,70.6822205 Z M92.2325503,73.8162376 C92.8250541,72.5064925 93.1213015,71.0564394 93.1213015,69.4660347 C93.1213015,68.2186585 92.9341978,67.0336688 92.559985,65.9110302 C92.1857721,64.7883916 91.6400532,63.8216895 90.9228118,63.010895 C89.1764851,60.9839086 87.0559773,59.9704306 84.5612248,59.9704306 L73.241342,59.9704306 C73.1477888,60.001615 73.1010129,60.0639829 73.1010129,60.1575361 L73.1010129,90.6089563 C73.1010129,90.7648783 73.1477888,90.8428381 73.241342,90.8428381 L77.4044394,90.8428381 L77.4979922,90.6557326 L77.4979922,79.0084152 L77.5915449,78.8213097 C78.6206303,78.8524941 79.6029244,78.8680861 80.5384566,78.8680861 C80.725563,78.8680861 81.1153622,78.8524941 81.7078659,78.8213097 L82.4095116,78.8213097 C84.8107108,78.7277565 86.8454628,78.3223653 88.5138285,77.605124 C90.1821942,76.8878826 91.4217558,75.6249331 92.2325503,73.8162376 Z M87.8823475,71.8984062 C87.4145814,72.7403852 86.6973508,73.340676 85.7306342,73.6992967 C84.7639176,74.0579173 83.5945199,74.2995929 82.2224061,74.4243305 L77.4979922,74.4243305 L77.4979922,64.3674098 C77.7786518,64.3674098 78.4335145,64.3518179 79.4625999,64.3206335 L81.3336549,64.3206335 C82.8928752,64.3206335 84.1870087,64.4609612 85.2160941,64.7416208 C86.2451795,65.0222805 87.0247779,65.5835914 87.5549128,66.4255703 C88.1474165,67.3299181 88.443664,68.3589881 88.443664,69.5128111 C88.443664,70.4171589 88.2565603,71.2123493 87.8823475,71.8984062 Z M130.745099,87.9427029 L127.330424,85.0425676 C128.141218,83.8575602 128.718121,82.7973063 129.06115,81.8617741 C129.84076,79.8971565 130.230559,77.8234247 130.230559,75.6405162 C130.230559,73.5199766 129.856352,71.4540407 129.107926,69.4426465 C128.3595,67.4312523 127.283654,65.6459719 125.880356,64.0867516 C124.508242,62.5587157 122.832106,61.412706 120.851896,60.648688 C118.871686,59.8846701 116.774566,59.5026668 114.560473,59.5026668 C111.940983,59.5026668 109.508636,60.0016098 107.263359,60.9995108 C104.425578,62.2468871 102.156946,64.2504551 100.457396,67.010275 C98.7578462,69.770095 97.9080839,72.8339169 97.9080839,76.2018327 C98.0016371,79.2267201 98.8513994,82.0332746 100.457396,84.6215803 C102.063393,87.209886 104.222881,89.0809222 106.935924,90.2347453 C109.181201,91.2014619 111.597957,91.6848129 114.186262,91.6848129 C116.057327,91.6848129 117.858199,91.4041575 119.588934,90.8428381 C121.319668,90.2815188 122.839885,89.4551445 124.14963,88.3636903 L127.798188,91.450931 C127.922925,91.3261934 128.133417,91.0923139 128.429669,90.7492854 C128.72592,90.4062569 129.03776,90.0398457 129.365196,89.6500406 C129.692632,89.2602355 129.996676,88.8938242 130.277335,88.5507958 C130.557995,88.2077673 130.713915,88.0050717 130.745099,87.9427029 Z M124.570618,70.7289968 C125.131937,72.2570327 125.412592,73.8785975 125.412592,75.5937399 C125.412592,76.7163785 125.272265,77.8000203 124.991605,78.8446979 C124.710945,79.8893755 124.289962,80.8170977 123.728643,81.6278922 C123.292061,81.3160482 122.785322,80.918453 122.208411,80.4350947 C121.631499,79.9517364 121.20272,79.5853251 120.92206,79.3358499 C120.828507,79.4294031 120.688179,79.5853228 120.501073,79.8036136 C120.313967,80.0219045 120.056699,80.3259479 119.729263,80.7157529 C119.401827,81.105558 119.058803,81.5109492 118.700183,81.9319387 C118.341562,82.3529282 118.05311,82.7193394 117.83482,83.0311835 L120.501073,85.3700023 C119.783832,86.0248748 118.902885,86.5160218 117.858208,86.8434581 C116.81353,87.1708943 115.698704,87.33461 114.513697,87.33461 C112.76737,87.33461 111.161397,87.0227706 109.69573,86.3990825 C107.668744,85.5571035 106.039383,84.1928062 104.807599,82.3061497 C103.575815,80.4194931 102.928748,78.3535572 102.86638,76.10828 C102.86638,73.6758963 103.451078,71.4696327 104.620494,69.4894229 C105.789909,67.5092131 107.388086,66.035772 109.415072,65.0690555 C110.880739,64.3518141 112.486712,63.9931988 114.233039,63.9931988 C116.135288,63.9931988 117.834812,64.39859 119.331664,65.2093846 C120.516671,65.8642571 121.576925,66.6672435 122.512457,67.6183679 C123.447989,68.5694923 124.134036,69.6063582 124.570618,70.7289968 Z M161.118559,90.6557326 C160.027105,89.1900656 158.577051,87.1787015 156.768356,84.6215803 C154.273603,81.066558 152.371383,78.4471072 151.061638,76.7631492 L151.061638,76.5760437 L151.248744,76.482491 C152.090723,76.1394625 152.768973,75.8120312 153.283516,75.5001871 C153.798059,75.188343 154.273614,74.7517679 154.710195,74.1904486 C155.895203,72.7247815 156.487698,70.978481 156.487698,68.9514946 C156.487698,68.0783312 156.362962,67.2363649 156.113487,66.4255703 C155.708089,65.0222721 155.100003,63.8840583 154.289208,63.010895 C153.478413,62.1377316 152.511711,61.4828689 151.389073,61.0462872 C150.266434,60.6097055 149.065853,60.3212541 147.787292,60.1809243 C146.508731,60.0405944 145.011902,59.9704306 143.29676,59.9704306 L137.777148,59.9704306 L137.449713,60.0172069 L137.449713,90.5621799 L137.543266,90.8428381 L141.706363,90.8428381 L141.846692,90.6557326 L141.846692,77.6986767 L146.056566,77.6986767 C147.023283,79.0396062 148.637051,81.2302779 150.897921,84.2707574 C153.15879,87.311237 154.468516,89.0731295 154.827136,89.5564878 C155.185757,90.0398461 155.505392,90.4686253 155.786052,90.8428381 L160.744348,90.8428381 L160.791124,90.7960618 C160.822309,90.7960618 160.853492,90.8116537 160.884677,90.8428381 L161.025006,90.8428381 C161.087375,90.8428381 161.118559,90.7804703 161.118559,90.6557326 Z M151.342296,67.9691907 C151.404665,68.2498504 151.435849,68.5305058 151.435849,68.8111655 C151.435849,69.9338041 151.04605,70.9005062 150.26644,71.7113007 C149.70512,72.3038044 148.995686,72.7091956 148.138115,72.9274865 C147.280544,73.1457773 146.25927,73.2549211 145.074262,73.2549211 L143.29676,73.2549211 C142.610703,73.2237367 142.127352,73.2081447 141.846692,73.2081447 L141.846692,64.4609626 L142.033798,64.3206335 C143.374727,64.3206335 144.512941,64.3518174 145.448473,64.4141862 C146.384005,64.476555 147.264952,64.6246787 148.091338,64.8585618 C148.917725,65.0924448 149.611568,65.4666521 150.172887,65.9811948 C150.734206,66.4957375 151.124006,67.1583962 151.342296,67.9691907 Z M183.165824,78.0728877 C182.542135,76.3889298 181.583229,75.0870004 180.289076,74.1670604 C178.994924,73.2471204 177.225235,72.2882143 174.979958,71.2903133 C173.763766,70.7601784 172.875024,70.3547872 172.313705,70.0741276 C171.097513,69.4504395 170.489426,68.4993294 170.489426,67.2207687 C170.489426,67.1895843 170.505018,67.0960325 170.536202,66.9401105 L170.536202,66.6594522 C170.629756,66.1293173 170.894819,65.6303743 171.331401,65.1626082 C171.767982,64.6948421 172.251333,64.3985947 172.781468,64.2738571 C173.124497,64.1803039 173.451928,64.133528 173.763772,64.133528 C175.291808,64.133528 176.585941,64.9599023 177.646211,66.6126758 C178.051609,66.3320162 178.706471,65.895441 179.610819,65.3029373 C180.483982,64.7104336 181.060885,64.3206344 181.341545,64.133528 C180.873779,63.1668114 180.117568,62.2702731 179.072891,61.4438864 C178.028213,60.6174996 176.928979,60.0639847 175.775156,59.7833251 C175.057915,59.5962186 174.356276,59.5026668 173.670219,59.5026668 C170.988361,59.5026668 168.774301,60.6096966 167.027974,62.8237894 C166.030073,64.0711657 165.53113,65.5679947 165.53113,67.3143215 C165.53113,68.0627472 165.640274,68.8267537 165.858565,69.6063638 C166.139224,70.5730804 166.708331,71.4540267 167.565902,72.249229 C168.423474,73.0444314 169.413564,73.738274 170.536202,74.3307777 C171.035153,74.6114374 171.861527,75.0168286 173.01535,75.5469635 C174.262726,76.1082828 175.284,76.6228178 176.079203,77.0905839 C176.874405,77.5583499 177.568248,78.1040689 178.160751,78.727757 C178.846808,79.4449983 179.189832,80.3805165 179.189832,81.5343395 C179.189832,82.6569781 178.877992,83.732824 178.254304,84.7619094 C177.848907,85.4479663 177.2798,85.9702973 176.546966,86.3289179 C175.814133,86.6875386 175.04233,86.8668463 174.231536,86.8668463 C173.888507,86.8668463 173.545484,86.8356623 173.202456,86.7732935 C172.391661,86.5861871 171.627655,86.2275718 170.910413,85.6974369 C170.193172,85.167302 169.647453,84.5748072 169.27324,83.9199346 L168.992582,83.3586181 C168.83666,82.9532208 168.696332,82.6569734 168.571595,82.469867 L165.01659,84.9022385 C165.421987,86.1496147 166.11583,87.3190124 167.098139,88.4104666 C168.080448,89.5019208 169.164089,90.2815193 170.349097,90.7492854 C171.471735,91.1858671 172.656725,91.4041546 173.904101,91.4041546 C175.276215,91.4041546 176.601533,91.1390912 177.880093,90.6089563 C179.158654,90.0788214 180.281276,89.3148149 181.247992,88.3169139 C182.089971,87.4437505 182.721446,86.4302725 183.142435,85.2764495 C183.563425,84.1226265 183.773916,82.9220449 183.773916,81.6746686 C183.773916,80.4272924 183.571221,79.2267108 183.165824,78.0728877 Z M212.276321,64.2270807 L212.276321,60.1107597 C212.276321,60.0172065 212.229545,59.9704306 212.135992,59.9704306 L188.326817,59.9704306 C188.202079,59.9704306 188.139711,60.0327984 188.139711,60.1575361 L188.139711,64.2270807 C188.139711,64.3206339 188.202079,64.3674098 188.326817,64.3674098 L197.775645,64.3674098 L197.775645,90.702509 C197.775645,90.7960622 197.822421,90.8428381 197.915974,90.8428381 L201.985518,90.8428381 C202.110256,90.8428381 202.172624,90.7804703 202.172624,90.6557326 L202.172624,64.4141862 C206.476072,64.3830018 209.781569,64.3674098 212.089216,64.3674098 C212.213953,64.3674098 212.276321,64.3206339 212.276321,64.2270807 Z M245.035376,60.1107597 C245.035376,60.0172065 244.9886,59.9704306 244.895047,59.9704306 L240.825502,59.9704306 C240.700764,59.9704306 240.638396,60.0327984 240.638396,60.1575361 L240.638396,77.5115712 C240.638396,78.7901319 240.396721,79.9907135 239.913363,81.1133521 C239.430004,82.2359907 238.75955,83.2338768 237.901979,84.1070401 C237.044407,84.9802035 236.046521,85.6584542 234.908291,86.1418124 C233.77006,86.6251707 232.561682,86.8668463 231.283121,86.8668463 C230.035745,86.8668463 228.84296,86.6251707 227.704729,86.1418124 C226.566498,85.6584542 225.568612,84.9802035 224.711041,84.1070401 C223.85347,83.2338768 223.183015,82.2281948 222.699657,81.0899639 C222.216298,79.9517331 221.974623,78.7589475 221.974623,77.5115712 L221.974623,60.1107597 C221.974623,60.0172065 221.927847,59.9704306 221.834294,59.9704306 L217.764749,59.9704306 C217.640011,59.9704306 217.577644,60.0327984 217.577644,60.1575361 L217.577644,77.5583476 C217.577644,79.429412 217.928463,81.1913045 218.630112,82.844078 C219.331761,84.4968515 220.321851,85.9624966 221.600412,87.2410573 C222.878972,88.5196179 224.344618,89.5097079 225.997391,90.2113571 C227.650165,90.9130062 229.412057,91.2638255 231.283121,91.2638255 C233.154186,91.2638255 234.923874,90.9130062 236.59224,90.2113571 C238.260606,89.5097079 239.734047,88.5274139 241.012607,87.2644454 C242.291168,86.001477 243.281258,84.5280359 243.982907,82.844078 C244.684556,81.1601201 245.035376,79.3982276 245.035376,77.5583476 L245.035376,60.1107597 Z M278.402523,59.9704306 L273.584557,59.9704306 L264.977704,84.3876984 L254.967559,59.9704306 L249.868934,59.9704306 L262.779214,90.8428381 L267.363299,90.8428381 L278.402523,59.9704306 Z M323.323436,59.9704306 L318.599022,59.9704306 L318.224811,60.2043124 C318.068889,60.7656318 317.702477,62.0051933 317.125566,63.9230343 C316.548654,65.8408752 315.550768,69.1463727 314.131878,73.8396258 C312.712987,78.5328789 311.878817,81.2692695 311.629342,82.0488796 C311.442235,81.4563759 311.153784,80.5208578 310.763979,79.2422971 C310.374174,77.9637365 309.789475,76.0615162 309.009865,73.5355794 C308.230255,71.0096425 307.489636,68.6396632 306.787987,66.4255703 C306.086338,64.2114775 305.423679,62.2312974 304.799991,60.4849707 L299.982024,60.4849707 L299.748142,60.7656289 C295.943645,73.3329446 293.940077,79.9439395 293.737378,80.598812 C293.53468,81.2536845 293.33978,81.8773633 293.152674,82.469867 C293.090305,82.625789 293.027937,82.7661167 292.965568,82.8908544 C292.934384,82.8284856 292.887608,82.7193418 292.825239,82.5634197 L286.089441,59.9704306 L280.897263,59.9704306 C280.834894,59.9704306 280.803711,60.0016145 280.803711,60.0639833 C280.803711,60.1575365 280.834894,60.2666803 280.897263,60.3914179 C281.177923,61.2022125 281.575518,62.3872022 282.090061,63.9464225 C282.604604,65.5056428 284.639356,71.8047983 288.194378,82.844078 C289.192279,85.9625186 289.854937,88.0284545 290.182374,89.0419477 C290.50981,90.0554409 290.689118,90.6089558 290.720302,90.702509 L290.720302,90.7492854 C290.751486,90.8116542 290.813854,90.8428381 290.907408,90.8428381 L295.39794,90.8428381 C295.522677,90.8428381 295.600637,90.8116542 295.631821,90.7492854 L295.631821,90.702509 C296.099588,89.2680263 296.684286,87.39699 297.385936,85.089344 C298.087585,82.781698 298.695671,80.7781299 299.210214,79.0785798 C299.724757,77.3790297 300.30166,75.4612175 300.94094,73.3250857 C301.58022,71.1889539 301.993408,69.8090646 302.180514,69.1853765 C302.211698,69.0294544 302.258474,68.9514946 302.320843,68.9514946 L302.367619,68.998271 L309.056641,90.6557326 C309.087826,90.7804703 309.134601,90.8428381 309.19697,90.8428381 L313.547173,90.8428381 C313.640726,90.8428381 313.718686,90.7960622 313.781055,90.702509 L313.781055,90.6557326 L323.323436,59.9704306 Z M357.532558,90.8428381 L344.85616,74.5178832 C345.292742,73.9565639 345.799481,73.3172932 346.376392,72.6000518 C346.953304,71.8828105 348.06813,70.4717373 349.720903,68.3667899 C351.373677,66.2618425 352.808138,64.4375821 354.02433,62.893954 C355.240522,61.3503259 355.94216,60.4381957 356.129267,60.1575361 L355.895385,59.9704306 L350.703207,59.9704306 L342.002801,70.6822205 L333.395948,59.9704306 L327.969889,59.9704306 L327.876336,60.2043124 L339.05589,74.5178832 L326.285939,90.6089563 L326.332716,90.8428381 L331.805552,90.8428381 L341.862472,78.3067696 L342.002801,78.3067696 L352.153275,90.8428381 L357.532558,90.8428381 Z M387.017266,60.2510888 L387.017266,60.2043124 L387.064043,60.1575361 C387.064043,60.0639829 387.001675,60.0172069 386.876937,60.0172069 L382.152523,60.0172069 C382.121339,60.0172069 382.074563,60.001615 382.012194,59.9704306 L381.918641,59.9704306 C381.825088,59.9704306 381.700352,60.0639824 381.54443,60.2510888 C380.172317,61.9350467 378.192136,64.5077216 375.603831,67.9691907 C374.668299,69.216567 374.029028,70.0741253 373.685999,70.5418913 L373.498894,70.5418913 C372.999943,69.8558344 372.157977,68.7332126 370.97297,67.1739923 C368.634139,64.0243673 366.841063,61.66998 365.593687,60.1107597 L365.313028,60.0172069 L360.307956,60.0172069 L360.26118,60.0639833 C360.105258,60.1263521 360.027298,60.2199039 360.027298,60.3446416 C362.334944,63.1512381 365.671625,67.4234376 370.037442,73.1613683 C370.411655,73.6603188 370.863822,74.2528137 371.393957,74.9388706 L371.393957,90.8896145 L375.790936,90.8896145 L375.790936,74.9388706 C376.133965,74.5022889 377.817897,72.3038213 380.842785,68.3434017 C383.930041,64.3206133 385.988181,61.6232027 387.017266,60.2510888 Z M415.66,90.702509 L415.66,86.6329644 C415.66,86.5082268 415.613224,86.4458589 415.519671,86.4458589 L398.165636,86.4458589 L404.620775,76.6228201 C409.579096,69.1385627 413.196433,63.6813735 415.472894,60.2510888 L415.472894,59.9704306 L391.149179,59.9704306 C391.024442,59.9704306 390.962074,60.0327984 390.962074,60.1575361 L390.962074,64.2270807 C390.962074,64.3206339 391.00885,64.3674098 391.102403,64.3674098 L407.193476,64.3674098 C407.380583,64.3674098 407.474134,64.3985938 407.474134,64.4609626 L407.474134,64.507739 C407.44295,64.5389234 407.427358,64.5701073 407.427358,64.6012917 C403.747598,69.7155343 398.461921,77.4803349 391.570167,87.8959265 L390.073323,90.1879689 C390.042138,90.2191533 390.010954,90.2737252 389.97977,90.3516862 C389.948586,90.4296472 389.932994,90.515403 389.932994,90.6089563 L389.932994,90.702509 L389.97977,90.7492854 C390.042139,90.8428386 390.198059,90.8896145 390.447534,90.8896145 C390.572271,90.8896145 390.697007,90.8740225 390.821745,90.8428381 L415.472894,90.8428381 C415.597632,90.8428381 415.66,90.7960622 415.66,90.702509 Z M74.0053562,149.126202 L74.0053562,137.993424 L74.0521326,136.870791 C74.0521326,135.935259 73.9975607,135.116681 73.8884152,134.415032 C73.7792698,133.713382 73.5687782,133.081908 73.2569342,132.520588 C72.7579837,131.39795 72.0563451,130.509208 71.1519973,129.854335 C70.4659404,129.293016 69.655158,128.879828 68.7196258,128.614761 C67.7840936,128.349694 66.8017996,128.217162 65.7727142,128.217162 C64.8059976,128.217162 63.8392955,128.31851 62.8725789,128.521208 C61.9058623,128.723907 61.0171201,129.012358 60.2063255,129.386571 C59.3643466,131.226451 58.7250758,132.848016 58.2884941,134.251314 C58.662707,134.064208 59.1304661,133.814736 59.6917854,133.502892 C61.3445589,132.598544 62.6075084,132.037234 63.4806718,131.818943 C64.0419911,131.663021 64.6188939,131.585061 65.2113977,131.585061 C66.0221922,131.585061 66.7784027,131.748777 67.4800518,132.076213 C68.181701,132.403649 68.7508079,132.879204 69.1873895,133.502892 C69.4680492,133.877105 69.6083769,134.329272 69.6083769,134.859407 C69.6083769,134.984145 69.5927849,135.140064 69.5616005,135.327171 C69.5304161,135.639015 69.5148242,135.872894 69.5148242,136.028817 C67.6437598,136.12237 65.9910111,136.332861 64.5565284,136.660298 C63.1220457,136.987734 61.8123203,137.525657 60.6273129,138.274083 C59.5982275,138.866586 58.7796491,139.638389 58.1715532,140.589513 C57.5634573,141.540637 57.2594139,142.577503 57.2594139,143.700142 C57.2905983,144.853965 57.6414176,145.922015 58.3118823,146.904324 C58.9823471,147.886633 59.8477013,148.689619 60.9079711,149.313307 C61.8123189,149.718704 62.8102049,149.9214 63.9016592,149.9214 C65.5856171,149.9214 67.0980381,149.531601 68.4389675,148.751991 C68.6572584,148.564884 68.9690978,148.346597 69.374495,148.097121 C69.374495,148.065937 69.4524549,148.003569 69.6083769,147.910016 L69.6083769,149.172978 C69.6083769,149.266531 69.6707448,149.313307 69.7954824,149.313307 L73.8182507,149.313307 C73.9429883,149.313307 74.0053562,149.250939 74.0053562,149.126202 Z M69.6083769,144.682446 C69.5460081,144.71363 69.2653527,144.822774 68.7664022,145.009881 C67.9556076,145.321725 67.238377,145.5634 66.6146889,145.734914 C65.9910008,145.906429 65.382914,145.992184 64.7904103,145.992184 C63.9172469,145.992184 63.1688324,145.773897 62.5451443,145.337315 C61.9214562,144.931918 61.6096168,144.370607 61.6096168,143.653366 C61.6719856,142.468358 62.1241527,141.595208 62.9661317,141.033889 C63.6210042,140.597307 64.3148468,140.285468 65.0476803,140.098361 C65.7805139,139.911255 66.755012,139.739743 67.9712038,139.583821 C68.6884451,139.459083 69.234164,139.365532 69.6083769,139.303163 L69.6083769,144.682446 Z M102.039997,141.033889 C102.164735,140.379016 102.227102,139.692969 102.227102,138.975728 C102.227102,137.29177 101.837303,135.670205 101.057693,134.110985 C100.278083,132.551765 99.2022371,131.210855 97.8301232,130.088217 C97.0505131,129.464529 96.1383829,128.99677 95.0937053,128.684926 C94.0490277,128.373082 92.9342019,128.217162 91.7491945,128.217162 C90.096421,128.217162 88.5216321,128.497817 87.0247806,129.059137 C86.7753053,129.15269 86.5570178,129.246242 86.3699113,129.339795 C86.2763581,129.402164 86.1672143,129.464532 86.0424767,129.5269 L86.0424767,118.628005 C86.0424767,118.534452 85.9957008,118.487676 85.9021476,118.487676 L81.8326029,118.487676 C81.7078653,118.487676 81.6454974,118.534452 81.6454974,118.628005 L81.6454974,149.172978 C81.6454974,149.297716 81.7078653,149.360083 81.8326029,149.360083 L85.8553712,149.360083 C85.9489244,149.360083 86.0112923,149.313308 86.0424767,149.219754 C86.0424767,148.783173 86.0580687,148.564885 86.0892531,148.564885 L86.0892531,148.611661 L86.1360295,148.611661 C87.5705121,149.360087 89.176485,149.734294 90.9539961,149.734294 C92.5444008,149.734294 94.0568218,149.438047 95.4913045,148.845543 C97.1128936,148.159486 98.5317628,147.099232 99.7479546,145.66475 C100.964146,144.230267 101.728153,142.686662 102.039997,141.033889 Z M97.4091359,136.122369 C97.7833487,136.901979 97.9704524,137.77513 97.9704524,138.741846 C97.9704524,140.39462 97.4715093,141.829081 96.4736084,143.045273 C95.8811046,143.793699 95.1326901,144.362805 94.2283424,144.75261 C93.3239946,145.142416 92.3728845,145.337315 91.3749835,145.337315 C90.5018201,145.337315 89.6286698,145.196987 88.7555065,144.916328 C87.7264211,144.573299 86.8220869,144.121132 86.0424767,143.559813 L86.0424767,134.859407 C86.6973492,134.079797 87.5315196,133.463914 88.5450128,133.01174 C89.558506,132.559566 90.5953719,132.333483 91.6556417,132.333483 C92.5288051,132.333483 93.3551795,132.504995 94.1347896,132.848023 C95.5380879,133.471711 96.6295257,134.563149 97.4091359,136.122369 Z M125.724435,147.769687 L125.724435,142.624285 L125.443777,142.717838 C124.258769,143.591002 123.167331,144.269252 122.16943,144.75261 C121.171529,145.235969 120.111276,145.477644 118.988637,145.477644 C118.58324,145.477644 118.177848,145.44646 117.772451,145.384092 C116.462706,145.134616 115.26992,144.510938 114.194058,143.513037 C113.118196,142.515136 112.47113,141.376922 112.252839,140.098361 C112.19047,139.661779 112.159286,139.256388 112.159286,138.882175 C112.159286,136.824005 112.954477,135.093296 114.544881,133.689998 C115.636335,132.754466 117.039613,132.286706 118.754755,132.286706 C120.251607,132.286706 121.686068,132.614138 123.058182,133.26901 C123.370026,133.424932 123.868969,133.72118 124.555026,134.157761 C124.960423,134.376052 125.319038,134.578748 125.630882,134.765854 C125.662067,133.487294 125.677659,131.803361 125.677659,129.714006 L125.490553,129.480124 C123.432382,128.482223 121.202731,127.98328 118.801531,127.98328 C116.930467,127.98328 115.230942,128.310711 113.702907,128.965584 C112.018949,129.682825 110.654651,130.836631 109.609974,132.427036 C108.565296,134.01744 107.902637,135.748149 107.621978,137.619213 C107.559609,138.118164 107.528425,138.617107 107.528425,139.116057 C107.528425,140.955937 108.00398,142.67885 108.955104,144.284847 C109.906229,145.890844 111.22375,147.208365 112.907708,148.23745 C114.560482,149.204167 116.509478,149.687518 118.754755,149.687518 C120.033316,149.687518 121.280673,149.523802 122.496865,149.196366 C123.713057,148.86893 124.788903,148.393375 125.724435,147.769687 Z M151.747692,149.079425 L151.747692,118.394123 C151.716507,118.394123 151.685323,118.378531 151.654139,118.347347 C151.59177,118.316162 151.544994,118.30057 151.51381,118.30057 C151.357888,118.30057 150.703025,118.284978 149.549202,118.253794 L147.537818,118.253794 L147.350712,118.440899 L147.350712,129.059137 C147.350712,129.090321 147.33512,129.144893 147.303936,129.222854 C147.272752,129.300815 147.241568,129.339795 147.210383,129.339795 C147.179199,129.339795 147.163607,129.324203 147.163607,129.293018 L147.11683,129.293018 C145.55761,128.482224 143.826902,128.076833 141.924653,128.076833 C140.864383,128.076833 139.804129,128.201568 138.743859,128.451044 C137.028717,128.825257 135.461724,129.698407 134.042834,131.070521 C132.623943,132.442635 131.727405,133.98624 131.353192,135.701382 C131.134901,136.668098 131.025757,137.650393 131.025757,138.648294 C131.025757,140.550542 131.446741,142.335823 132.28872,144.004188 C133.130699,145.672554 134.362464,147.036851 135.984053,148.097121 C137.574458,149.157391 139.49227,149.687518 141.737547,149.687518 C143.795718,149.687518 145.588795,149.219759 147.11683,148.284227 C147.241568,148.284227 147.303936,148.315411 147.303936,148.37778 L147.303936,148.471332 C147.33512,148.658439 147.350712,148.939094 147.350712,149.313307 L151.607362,149.313307 L151.747692,149.079425 Z M147.350712,143.46626 C146.539918,144.027579 145.666768,144.471951 144.731235,144.799387 C143.795703,145.126823 142.860185,145.290539 141.924653,145.290539 C140.77083,145.290539 139.710576,145.025475 138.743859,144.49534 C137.714774,143.965205 136.911788,143.193403 136.334876,142.17991 C135.757965,141.166417 135.422737,140.051591 135.329184,138.835399 C135.329184,137.49447 135.672207,136.286092 136.358264,135.21023 C137.044321,134.134368 137.855104,133.346973 138.790636,132.848023 C139.539061,132.442626 140.443396,132.23993 141.503665,132.23993 C142.563935,132.23993 143.624189,132.427034 144.684459,132.801247 C145.744729,133.175459 146.617879,133.658811 147.303936,134.251314 L147.303936,134.859407 C147.33512,137.011131 147.350712,139.880053 147.350712,143.46626 Z M178.098383,139.630597 C178.098383,137.946639 177.942463,136.473198 177.630619,135.21023 C177.318775,133.947261 176.819832,132.816844 176.133775,131.818943 C175.354165,130.633935 174.325095,129.752989 173.046534,129.176078 C171.767974,128.599166 170.411472,128.310715 168.97699,128.310715 C167.823167,128.310715 166.700545,128.482226 165.609091,128.825255 C163.769211,129.417758 162.186626,130.57936 160.861289,132.310095 C159.535951,134.040829 158.748557,135.888478 158.499082,137.853095 C158.499082,137.946648 158.48349,138.133752 158.452305,138.414412 L158.452305,138.928952 C158.452305,140.955938 159.00582,142.865954 160.112867,144.659058 C161.219913,146.452161 162.599802,147.75409 164.252576,148.564885 C165.62469,149.250942 167.277438,149.593965 169.210872,149.593965 C170.770092,149.593965 172.337085,149.360086 173.911897,148.89232 C175.48671,148.424554 176.851007,147.785283 178.00483,146.974488 L178.00483,142.530733 L177.770948,142.483956 C176.585941,143.35712 175.502299,144.050962 174.51999,144.565505 C173.537681,145.080048 172.531999,145.384091 171.502914,145.477644 C170.879226,145.540013 170.302323,145.571197 169.772188,145.571197 C168.493628,145.571197 167.339822,145.376297 166.310736,144.986492 C165.281651,144.596687 164.470869,143.918437 163.878365,142.95172 C163.566521,142.515138 163.332641,142.062971 163.176719,141.595205 C163.020797,141.127439 162.942837,140.566128 162.942837,139.911256 L163.925141,139.911256 C168.103852,139.94244 172.703483,139.958032 177.724172,139.958032 L178.098383,139.630597 Z M173.607851,136.403028 L163.129943,136.403028 C163.161127,135.904077 163.356027,135.358358 163.714648,134.765854 C164.073268,134.173351 164.533231,133.69 165.094551,133.315787 C166.092452,132.62973 167.230665,132.286706 168.509226,132.286706 C169.475943,132.286706 170.349093,132.489402 171.128703,132.894799 C171.690022,133.206643 172.243537,133.713382 172.789264,134.415032 C173.334991,135.116681 173.607851,135.779339 173.607851,136.403028 Z M198.508475,132.848023 L198.508475,128.778478 L198.414922,128.591373 L190.69682,128.591373 C190.572082,128.591373 190.486327,128.560189 190.43955,128.49782 C190.392773,128.435451 190.369385,128.388675 190.369385,128.357491 C190.369385,126.891824 190.509713,125.745814 190.790373,124.919427 C191.071032,124.093041 191.616751,123.41479 192.427546,122.884655 C193.082418,122.479258 193.877609,122.276562 194.813141,122.276562 C195.405645,122.276562 196.005935,122.354522 196.614031,122.510444 C197.222127,122.666366 197.775642,122.869062 198.274593,123.118537 L198.368145,123.118537 L198.414922,123.165313 C198.477291,123.165313 198.508475,123.071762 198.508475,122.884655 L198.508475,118.628005 C197.105176,118.284976 195.733083,118.113465 194.392154,118.113465 C192.677011,118.113465 191.258142,118.39412 190.135503,118.95544 C188.576283,119.766234 187.492641,120.92004 186.884545,122.416891 C186.276449,123.913743 185.972406,125.878331 185.972406,128.310715 C185.972406,128.466637 185.956814,128.560188 185.92563,128.591373 L182.651283,128.591373 C182.526546,128.591373 182.464178,128.653741 182.464178,128.778478 L182.464178,132.848023 C182.464178,132.972761 182.510954,133.035128 182.604507,133.035128 L185.972406,133.035128 L185.972406,149.172978 L186.065959,149.313307 L190.229056,149.313307 L190.369385,149.172978 L190.369385,133.222234 C190.369385,133.128681 190.431753,133.066313 190.556491,133.035128 L198.414922,133.035128 C198.477291,133.035128 198.508475,132.972761 198.508475,132.848023 Z M222.426794,132.801247 L222.426794,128.731702 C222.426794,128.638149 222.380019,128.591373 222.286465,128.591373 L216.907182,128.591373 C215.97165,128.248344 215.090704,128.014465 214.264317,127.889727 C213.43793,127.76499 212.44784,127.702622 211.294017,127.702622 C209.734797,127.733806 208.237968,128.295117 206.803485,129.386571 C205.369002,130.478025 204.417892,131.787751 203.950126,133.315787 C203.669467,134.220135 203.529139,135.124469 203.529139,136.028817 C203.529139,137.151455 203.747426,138.219505 204.184008,139.232998 C204.62059,140.246491 205.291044,141.127438 206.195392,141.875863 C205.602889,142.374814 205.135129,142.928329 204.792101,143.536425 C204.449073,144.144521 204.277561,144.791587 204.277561,145.477644 L204.277561,145.758303 C204.308745,145.914225 204.324337,146.023368 204.324337,146.085737 C204.41789,146.428766 204.581606,146.732809 204.815489,146.997876 C205.049372,147.262944 205.3846,147.582579 205.821181,147.956792 L205.96151,148.097121 C205.057163,148.751994 204.300952,149.360081 203.692856,149.9214 C203.08476,150.482719 202.609205,151.106398 202.266177,151.792455 C201.736042,152.727987 201.470978,153.757057 201.470978,154.879696 C201.470978,155.659306 201.611306,156.32976 201.891966,156.89108 C202.515654,158.107272 203.458968,159.04279 204.721936,159.697662 C205.984905,160.352535 207.349202,160.726742 208.814869,160.820295 C210.218168,160.945033 211.418749,161.007401 212.41665,161.007401 C214.225346,161.007401 215.862502,160.796909 217.32817,160.37592 C218.793837,159.95493 220.041194,159.214312 221.07028,158.154042 C222.068181,157.156141 222.567124,155.893191 222.567124,154.365156 C222.567124,153.866205 222.504756,153.367262 222.380018,152.868312 C222.068174,151.808042 221.592619,150.903708 220.953339,150.155282 C220.314058,149.406856 219.581236,148.814361 218.754849,148.37778 C217.928462,147.941198 217.0787,147.590379 216.205537,147.325311 C215.332373,147.060244 214.194159,146.771792 212.790861,146.459948 C211.044534,146.023366 209.797177,145.680343 209.048751,145.430868 L208.580987,144.916328 C208.518619,144.79159 208.487435,144.682446 208.487435,144.588893 C208.487435,144.401787 208.61217,144.167907 208.861646,143.887248 C208.924014,143.793694 208.986382,143.715734 209.048751,143.653366 C210.046652,143.96521 211.075722,144.121129 212.135992,144.121129 C213.258631,144.121129 214.342272,143.941822 215.38695,143.583201 C216.431628,143.22458 217.35935,142.702249 218.170144,142.016193 C218.949754,141.330136 219.526657,140.495965 219.90087,139.513656 C220.275083,138.531348 220.462187,137.463298 220.462187,136.309475 C220.462187,135.186836 220.290675,134.079806 219.947647,132.988352 L222.239689,132.988352 C222.364427,132.988352 222.426794,132.925984 222.426794,132.801247 Z M215.784549,133.643221 C216.189946,134.235725 216.392642,134.952956 216.392642,135.794935 C216.392642,136.761651 216.143171,137.556842 215.64422,138.18053 C214.739872,139.334353 213.554883,139.911256 212.089216,139.911256 C211.715003,139.911256 211.356387,139.880072 211.013359,139.817703 C210.264933,139.661781 209.594478,139.365533 209.001975,138.928952 C208.409471,138.49237 208.019672,137.946651 207.832565,137.291779 C207.739012,136.886381 207.692236,136.48099 207.692236,136.075593 C207.692236,135.358352 207.863748,134.680101 208.206776,134.040821 C208.549805,133.40154 209.048748,132.894801 209.70362,132.520588 C210.389677,132.084007 211.184868,131.865719 212.089216,131.865719 C212.837641,131.865719 213.547076,132.021639 214.217541,132.333483 C214.888005,132.645327 215.410336,133.081902 215.784549,133.643221 Z M218.076592,155.253907 C217.577641,156.002332 216.821431,156.524663 215.807937,156.820915 C214.794444,157.117167 213.679618,157.265291 212.463427,157.265291 C212.213951,157.265291 211.870928,157.249699 211.434346,157.218514 C211.028949,157.18733 210.795069,157.171738 210.732701,157.171738 C209.111112,157.078185 207.902734,156.781937 207.107532,156.282987 C206.312329,155.784036 205.914734,155.144766 205.914734,154.365156 C205.914734,153.679099 206.242165,152.922888 206.897038,152.096501 C207.55191,151.270115 208.456245,150.467128 209.610068,149.687518 C209.953096,149.781071 210.639143,149.952583 211.668228,150.202058 C213.102711,150.545087 214.131781,150.825742 214.755469,151.044033 C215.503895,151.293508 216.143165,151.558572 216.6733,151.839231 C217.203435,152.119891 217.64001,152.50969 217.983039,153.008641 C218.263698,153.382854 218.404026,153.803837 218.404026,154.271603 C218.404026,154.645816 218.294882,154.973247 218.076592,155.253907 Z M247.888735,149.126202 L247.888735,146.132514 C247.919919,143.887236 247.935511,142.468367 247.935511,141.875863 C247.935511,141.408097 247.919919,140.753235 247.888735,139.911256 L247.888735,138.320859 C247.85755,136.761639 247.686039,135.405137 247.374194,134.251314 C247.06235,133.097491 246.454264,132.037237 245.549916,131.070521 C244.645568,130.103804 243.569722,129.386574 242.322346,128.918807 C241.07497,128.451041 239.749652,128.217162 238.346354,128.217162 C236.911871,128.217162 235.493002,128.451041 234.089704,128.918807 C233.871413,128.981176 233.621942,129.074728 233.341282,129.199466 C233.091807,129.324203 232.889111,129.402163 232.733189,129.433348 L232.733189,118.628005 L232.499307,118.394123 L228.523315,118.394123 L228.429763,118.440899 C228.367394,118.472084 228.33621,118.550044 228.33621,118.674781 L228.33621,149.079425 L228.570092,149.266531 L232.546084,149.266531 L232.733189,149.126202 L232.733189,133.92388 C233.45043,133.487298 234.261213,133.136479 235.165561,132.871411 C236.069908,132.606344 236.989835,132.473812 237.925367,132.473812 C238.393133,132.473812 238.8453,132.504996 239.281882,132.567365 C240.342151,132.848024 241.293261,133.393743 242.13524,134.204538 C242.977219,135.015332 243.429387,135.935259 243.491755,136.964344 L243.491755,149.032649 L243.725637,149.266531 L247.654853,149.266531 L247.888735,149.126202 Z M260.346843,124.24117 C260.315658,124.147617 260.300066,124.085249 260.300066,124.054064 L257.633813,121.341035 C257.602628,121.278666 257.571444,121.247482 257.54026,121.247482 C257.477891,121.247482 257.431115,121.278666 257.399931,121.341035 L254.593348,124.147617 C254.562164,124.178802 254.546572,124.209986 254.546572,124.24117 C254.546572,124.272354 254.577756,124.303538 254.640125,124.334723 L256.043416,125.738014 C256.448813,126.174596 256.737265,126.470843 256.908779,126.626765 C257.080293,126.782687 257.212825,126.923015 257.306378,127.047752 L257.54026,127.047752 L260.346843,124.24117 Z M259.691973,128.731702 L259.551644,128.591373 L255.388547,128.591373 L255.248218,128.638149 L255.248218,149.126202 C255.248218,149.18857 255.310585,149.250938 255.435323,149.313307 L259.551644,149.313307 C259.645197,149.313307 259.691973,149.250939 259.691973,149.126202 L259.691973,128.731702 Z M274.067913,123.773406 L274.067913,123.539524 L271.401659,120.873271 C271.33929,120.810902 271.292514,120.779718 271.26133,120.779718 C271.198961,120.779718 271.152185,120.79531 271.121001,120.826495 L268.314418,123.633077 C268.283234,123.664262 268.267642,123.695445 268.267642,123.72663 C268.267642,123.757814 268.298826,123.80459 268.361195,123.866959 L268.641853,124.147617 C268.797775,124.303539 269.218758,124.716726 269.904815,125.387191 C270.590872,126.057656 270.980671,126.439659 271.074225,126.533212 L271.308106,126.533212 C271.495213,126.346106 271.79146,126.034267 272.196858,125.597685 C272.945283,124.849259 273.568962,124.241172 274.067913,123.773406 Z M273.600149,128.591373 L269.249946,128.591373 L269.156393,128.638149 L269.156393,151.277915 L269.20317,151.886008 C269.20317,152.915093 269.062842,153.764855 268.782182,154.43532 C268.501522,155.105785 267.955804,155.58134 267.145009,155.862 C266.926718,155.924368 266.692839,155.955552 266.443363,155.955552 C266.225073,155.955552 265.913233,155.924368 265.507836,155.862 C265.164807,155.799631 264.899744,155.768447 264.712638,155.768447 C264.712638,156.735163 264.728229,157.764233 264.759414,158.855688 L264.759414,160.399308 C264.790598,160.492861 264.88415,160.555229 265.040072,160.586413 C265.601391,160.711151 266.193886,160.773519 266.817574,160.773519 C267.84666,160.773519 268.750994,160.617599 269.530604,160.305755 C270.715612,159.869174 271.674518,159.120759 272.407351,158.060489 C273.140185,157.000219 273.522188,155.830822 273.553372,154.552261 C273.553372,152.805934 273.568964,146.257307 273.600149,134.906183 L273.600149,128.591373 Z M301.213802,149.126202 C299.716951,147.473428 297.315787,145.150225 294.01024,142.156522 C292.107992,140.410195 290.673531,139.084878 289.706814,138.18053 C289.706814,138.149345 289.691222,138.118161 289.660038,138.086977 L289.660038,138.040201 C289.660038,138.009016 289.67563,137.977832 289.706814,137.946648 C292.482226,135.607817 295.881275,132.629751 299.904064,129.01236 L299.904064,128.591373 L294.478004,128.591373 C293.230628,129.558089 291.453143,131.101694 289.145497,133.222234 C288.054043,134.188951 287.180893,134.968549 286.52602,135.561053 C286.494836,135.561053 286.432468,135.623421 286.338915,135.748158 C286.276546,135.841711 286.22977,135.888487 286.198586,135.888487 C286.136217,135.888487 286.105033,135.74816 286.105033,135.4675 L286.105033,118.581229 L285.964704,118.440899 L281.848383,118.440899 L281.708054,118.581229 L281.708054,149.313307 L285.871151,149.313307 L286.105033,149.126202 L286.105033,140.659678 C286.105033,140.53494 286.136217,140.472572 286.198586,140.472572 L286.198586,140.519349 L286.292139,140.566125 C287.445962,141.470473 289.067526,143.014078 291.156882,145.196986 C292.996762,147.099235 294.415631,148.471328 295.413532,149.313307 L301.073473,149.313307 L301.213802,149.126202 Z M317.601126,148.751991 L317.601126,144.214682 C317.601126,144.121129 317.538758,144.058761 317.41402,144.027577 C316.821516,144.588896 316.21343,145.017675 315.589742,145.313927 C314.966053,145.610179 314.295599,145.758303 313.578357,145.758303 L313.15737,145.758303 C312.970264,145.727118 312.829936,145.711526 312.736383,145.711526 C312.08151,145.586789 311.535791,145.204785 311.099209,144.565505 C310.662628,143.926225 310.397564,143.341526 310.304011,142.811391 C310.304011,142.749022 310.319603,134.672382 310.350787,118.581229 L310.163682,118.440899 L306.281243,118.440899 L306.047361,118.628005 L306.047361,142.904944 C306.047361,143.996398 306.273445,145.04106 306.725618,146.038961 C307.177792,147.036862 307.778083,147.81646 308.526509,148.37778 C309.898623,149.375681 311.489004,149.874624 313.297699,149.874624 C314.794551,149.874624 316.229012,149.500416 317.601126,148.751991 Z M356.254004,149.126202 L356.254004,138.975728 C356.254004,136.699266 356.012328,134.812638 355.52897,133.315787 C355.045611,131.818935 354.024338,130.602762 352.465117,129.667229 C350.71879,128.638144 348.73861,128.123609 346.524518,128.123609 C345.214773,128.123609 343.967415,128.326305 342.782408,128.731702 C341.5974,129.137099 340.56833,129.760778 339.695167,130.602757 C339.196216,130.103806 338.744049,129.745191 338.338652,129.5269 C336.997722,128.622553 335.282606,128.170385 333.193251,128.170385 C331.727584,128.170385 330.261938,128.404265 328.796271,128.872031 C328.515612,128.965584 328.079037,129.16828 327.486533,129.480124 C327.174689,129.66723 326.956401,129.791966 326.831664,129.854335 L326.831664,128.778478 C326.831664,128.653741 326.769296,128.591373 326.644558,128.591373 L322.668566,128.591373 L322.434684,128.872031 L322.434684,149.313307 L323.042777,149.313307 C323.229884,149.344491 323.416987,149.360083 323.604094,149.360083 C323.978307,149.360083 324.524026,149.344491 325.241267,149.313307 L326.738111,149.313307 L326.831664,149.172978 L326.831664,134.578749 C327.704827,133.955061 328.616957,133.456118 329.568082,133.081905 C330.519206,132.707692 331.46252,132.520588 332.398052,132.520588 C333.271216,132.520588 334.09759,132.6921 334.8772,133.035128 C335.594442,133.346973 336.186936,133.83812 336.654702,134.508584 C337.122469,135.179049 337.356348,135.904076 337.356348,136.683686 C337.325164,137.369743 337.309572,141.517206 337.309572,149.126202 L337.449901,149.313307 L341.706551,149.313307 L341.706551,134.391643 C343.296956,133.175452 345.012072,132.567365 346.851952,132.567365 C347.382087,132.567365 347.896622,132.629733 348.395573,132.75447 C349.268736,132.941577 350.040538,133.424928 350.711003,134.204538 C351.381468,134.984148 351.763471,135.826114 351.857024,136.730462 L351.857024,149.079425 L351.950577,149.313307 L356.066898,149.313307 L356.254004,149.126202 Z M67.0668605,207.783776 C67.0668605,206.817059 67.0824525,205.47615 67.1136369,203.761008 C67.1760057,201.889943 67.2071897,200.471074 67.2071897,199.504358 C67.2071897,197.976322 67.1604138,196.635412 67.0668605,195.481589 C66.9733073,194.109475 66.7082438,192.893302 66.2716622,191.833032 C65.6167896,190.086705 64.4785759,188.77698 62.8569868,187.903817 C61.2353977,187.030653 59.4423212,186.594078 57.4777036,186.594078 C56.1055898,186.594078 54.7802724,186.796774 53.5017118,187.202171 C53.3146053,187.26454 53.0183579,187.404867 52.6129606,187.623158 C52.1451945,187.872633 51.7865792,188.012961 51.537104,188.044146 L51.537104,187.85704 C51.537104,187.389274 51.4747361,187.124211 51.3499985,187.061842 L47.3272302,187.061842 L47.2336775,187.202171 L47.2336775,207.59667 C47.2336775,207.690224 47.2804534,207.752592 47.3740066,207.783776 L51.3967749,207.783776 C51.4903281,207.783776 51.537104,207.721408 51.537104,207.59667 L51.537104,192.394349 C51.5994728,192.300795 51.6774327,192.222835 51.7709859,192.160467 C53.8291567,191.19375 55.669009,190.710399 57.2905981,190.710399 C57.664811,190.710399 58.0546102,190.741583 58.4600075,190.803952 C59.4267241,191.053427 60.3154663,191.599146 61.1262609,192.441125 C61.9370555,193.283104 62.4048145,194.187438 62.5295521,195.154155 L62.5295521,198.428501 C62.5607366,200.268381 62.5763285,201.671658 62.5763285,202.638375 C62.5763285,203.698644 62.5607366,205.16429 62.5295521,207.035354 L62.5295521,207.783776 L67.0668605,207.783776 Z M93.6514337,192.394349 C93.1212988,191.427632 92.4040682,190.49991 91.4997205,189.611154 C90.5953727,188.722399 89.6598545,188.044148 88.693138,187.576382 C87.3210241,186.952694 85.7930111,186.640854 84.1090532,186.640854 C81.7078539,186.640854 79.5717542,187.233349 77.7006898,188.418357 C76.1102851,189.447442 74.9019075,190.764963 74.0755207,192.37096 C73.249134,193.976957 72.8359468,195.715462 72.8359468,197.586526 C72.8359468,198.397321 72.9139066,199.239287 73.0698287,200.11245 C73.4128571,201.796408 74.2392315,203.363401 75.5489766,204.813476 C76.8587216,206.263551 78.3399587,207.238049 79.9927322,207.737 C81.1777396,208.111212 82.3939132,208.298316 83.6412894,208.298316 C85.3252474,208.298316 86.9312202,207.939701 88.4592561,207.222459 C89.987292,206.505218 91.2970174,205.460556 92.3884716,204.088442 C93.1368973,203.15291 93.7138002,202.077064 94.1191975,200.860872 C94.5245948,199.644681 94.7272904,198.381731 94.7272904,197.071986 C94.7272904,195.325659 94.3686751,193.766462 93.6514337,192.394349 Z M89.5818891,200.533438 C89.114123,201.406601 88.4514643,202.162812 87.5938931,202.802092 C86.736322,203.441372 85.8241918,203.838968 84.8574752,203.99489 C84.4520779,204.057258 84.0622787,204.088442 83.6880658,204.088442 C82.5654272,204.088442 81.5207653,203.807787 80.5540487,203.246468 C79.5873321,202.685148 78.7765497,201.90555 78.1216772,200.907649 C77.4979891,199.940932 77.1861497,198.833902 77.1861497,197.586526 C77.1861497,195.996121 77.6383168,194.592844 78.5426646,193.376652 C79.883594,191.599141 81.5519347,190.710399 83.5477367,190.710399 C84.7639285,190.741583 85.8865503,191.037831 86.9156357,191.59915 C87.9447211,192.160469 88.7710955,192.971252 89.3947836,194.031522 C89.9872873,194.998238 90.2835347,196.136452 90.2835347,197.446197 C90.2835347,198.60002 90.0496552,199.62909 89.5818891,200.533438 Z M120.423112,203.34002 C121.452198,201.687247 121.966733,199.738251 121.966733,197.492973 C121.966733,196.307966 121.803017,195.169752 121.475581,194.078298 C121.148145,192.986844 120.67259,192.020142 120.048901,191.178163 C118.957447,189.74368 117.639926,188.63665 116.096298,187.85704 C114.55267,187.07743 112.923309,186.687631 111.208167,186.687631 C110.210266,186.687631 109.21238,186.827958 108.214479,187.108618 C107.653159,187.26454 106.857969,187.654339 105.828883,188.278028 C105.517039,188.465134 105.345528,188.574278 105.314343,188.605462 L105.314343,187.248947 C105.314343,187.12421 105.251975,187.061842 105.127238,187.061842 L101.104469,187.061842 C100.979732,187.061842 100.917364,187.12421 100.917364,187.248947 L100.917364,217.700367 C100.917364,217.731552 100.932956,217.778328 100.96414,217.840697 C100.995325,217.903065 101.057693,217.934249 101.151246,217.934249 L105.174014,217.934249 C105.267567,217.934249 105.314343,217.871881 105.314343,217.747144 L105.314343,207.08213 C105.314343,206.957393 105.329935,206.895025 105.36112,206.895025 L105.407896,206.941801 C105.43908,206.972986 105.470264,206.988578 105.501449,206.988578 L105.641778,207.035354 C106.203097,207.316014 106.694244,207.549893 107.115234,207.737 C107.536223,207.924106 107.965002,208.048842 108.401584,208.111211 C109.243563,208.267133 110.085529,208.345092 110.927508,208.345092 C112.892126,208.345092 114.70859,207.916313 116.376956,207.058742 C118.045322,206.201171 119.394027,204.961609 120.423112,203.34002 Z M117.335872,198.989817 C117.055212,200.112456 116.478309,201.141526 115.605146,202.077058 C114.731982,203.01259 113.734096,203.589493 112.611458,203.807784 C112.081323,203.932522 111.551196,203.99489 111.021061,203.99489 C110.054344,203.99489 109.103234,203.815582 108.167702,203.456961 C107.23217,203.098341 106.28106,202.607194 105.314343,201.983505 L105.314343,193.423429 C106.125138,192.706187 107.029472,192.137081 108.027373,191.716091 C109.025274,191.295102 110.02316,191.08461 111.021061,191.08461 C111.925409,191.08461 112.782967,191.271714 113.593762,191.645927 C114.778769,192.207246 115.714287,193.018028 116.400344,194.078298 C117.14877,195.138568 117.522977,196.323557 117.522977,197.633303 C117.522977,198.101069 117.460609,198.553236 117.335872,198.989817 Z M148.317424,217.700367 L148.317424,187.248947 C148.317424,187.12421 148.28624,187.061842 148.223871,187.061842 L144.154327,187.061842 C144.029589,187.061842 143.967221,187.108618 143.967221,187.202171 C143.936037,187.202171 143.920445,187.217763 143.920445,187.248947 L143.920445,188.605462 C143.858076,188.574278 143.748932,188.51191 143.59301,188.418357 C142.501556,187.701115 141.643998,187.26454 141.02031,187.108618 C140.022409,186.827958 139.024523,186.687631 138.026622,186.687631 C136.311479,186.687631 134.682118,187.07743 133.13849,187.85704 C131.594862,188.63665 130.277341,189.74368 129.185887,191.178163 C128.562199,191.988957 128.086644,192.940067 127.759207,194.031522 C127.431771,195.122976 127.268055,196.26119 127.268055,197.446197 C127.268055,199.722659 127.798182,201.687247 128.858452,203.34002 C129.887537,204.961609 131.236243,206.201171 132.904609,207.058742 C134.572974,207.916313 136.373847,208.345092 138.30728,208.345092 C139.149259,208.345092 139.991225,208.267133 140.833204,208.111211 C141.238601,208.048842 141.815504,207.846146 142.56393,207.503118 C143.06288,207.253642 143.45268,207.082131 143.733339,206.988578 C143.764524,206.988578 143.8113,206.972986 143.873668,206.941801 L143.920445,206.941801 L143.920445,217.747144 L144.10755,217.934249 L148.130319,217.934249 L148.317424,217.700367 Z M143.920445,201.983505 C143.016097,202.607194 142.088375,203.098341 141.137251,203.456961 C140.186126,203.815582 139.211628,203.99489 138.213727,203.99489 C137.683592,203.99489 137.153465,203.932522 136.62333,203.807784 C135.531876,203.589493 134.541786,203.01259 133.653031,202.077058 C132.764275,201.141526 132.179576,200.112456 131.898916,198.989817 C131.805363,198.553236 131.758587,198.116661 131.758587,197.680079 C131.758587,196.339149 132.117203,195.138568 132.834444,194.078298 C133.520501,193.018028 134.471611,192.207246 135.687803,191.645927 C136.467413,191.271714 137.324971,191.08461 138.260503,191.08461 C139.258404,191.08461 140.248494,191.295102 141.230803,191.716091 C142.213112,192.137081 143.10965,192.706187 143.920445,193.423429 L143.920445,201.983505 Z M169.475938,192.254019 L169.19528,187.436053 C168.103825,186.905918 166.840876,186.640854 165.406393,186.640854 C164.127833,186.640854 162.880475,186.859142 161.664283,187.295724 C161.414808,187.389277 161.087377,187.560789 160.681979,187.810264 C160.338951,187.99737 160.073887,188.137698 159.886781,188.231251 L159.886781,187.155394 C159.886781,187.12421 159.824413,187.093026 159.699675,187.061842 L155.630131,187.061842 C155.598946,187.061842 155.583354,187.077434 155.583354,187.108618 C155.55217,187.170987 155.520986,187.202171 155.489802,187.202171 L155.489802,207.59667 L155.630131,207.783776 L159.746452,207.783776 L159.886781,207.549894 L159.886781,193.095994 L160.354545,192.62823 C161.913765,191.318485 163.472962,190.663623 165.032182,190.663623 C165.967714,190.663623 166.950008,190.897502 167.979094,191.365268 C168.135016,191.458821 168.431263,191.630333 168.867845,191.879808 C168.992583,191.973362 169.195278,192.098097 169.475938,192.254019 Z M187.453658,207.175683 C188.513928,206.707917 189.332506,205.951706 189.909418,204.907029 C190.486329,203.862351 190.774781,202.716342 190.774781,201.468965 L190.774781,201.047978 C190.743596,200.829687 190.728004,200.673767 190.728004,200.580214 C190.572082,199.364022 189.979587,198.311564 188.950502,197.422809 C187.921417,196.534053 186.736427,195.886987 185.395497,195.481589 C185.021285,195.388036 184.397606,195.278892 183.524442,195.154155 C183.243783,195.12297 183.041087,195.091786 182.91635,195.060602 C182.35503,194.998233 181.918455,194.935865 181.606611,194.873496 C180.88937,194.748759 180.257895,194.553859 179.712168,194.288792 C179.166441,194.023724 178.706478,193.641721 178.332265,193.142771 C178.207527,192.955664 178.145159,192.752968 178.145159,192.534678 C178.145159,192.222834 178.246507,191.934382 178.449206,191.669315 C178.651904,191.404247 178.909172,191.178164 179.221016,190.991057 C179.875888,190.648029 180.624303,190.476517 181.466282,190.476517 C182.152339,190.476517 182.83059,190.562273 183.501054,190.733787 C184.171519,190.905301 184.927729,191.146977 185.769708,191.458821 C185.863262,191.490005 186.299837,191.661517 187.079447,191.973361 C187.827873,192.31639 188.295632,192.519085 188.482738,192.581454 L188.482738,188.137698 C187.547206,187.638748 186.51034,187.248949 185.372109,186.968289 C184.233878,186.687629 183.072277,186.547302 181.887269,186.547302 C180.764631,186.547302 179.704377,186.679833 178.706476,186.944901 C177.708575,187.209968 176.819833,187.638747 176.040222,188.231251 C175.322981,188.761386 174.777262,189.416249 174.403049,190.195859 C174.028836,190.975469 173.841733,191.817435 173.841733,192.721783 C173.841733,193.283102 173.919693,193.828821 174.075615,194.358956 C174.387459,195.325673 175.011137,196.159843 175.94667,196.861492 C176.882202,197.563141 177.942456,198.101064 179.127463,198.475277 C179.595229,198.600015 180.31246,198.740343 181.279176,198.896265 C182.432999,199.052187 183.360722,199.247086 184.062371,199.480969 C184.76402,199.714852 185.379903,200.143632 185.910038,200.76732 C186.221882,201.079164 186.377801,201.468963 186.377801,201.936729 C186.377801,202.15502 186.331025,202.357715 186.237472,202.544822 C186.019181,203.012588 185.69175,203.386795 185.255168,203.667455 C184.818587,203.948115 184.335236,204.119626 183.805101,204.181995 C183.399703,204.244364 182.97872,204.275548 182.542139,204.275548 C180.795812,204.275548 179.002735,203.885749 177.162855,203.106138 C176.632721,202.919032 176.087002,202.700744 175.525682,202.451269 C174.839625,202.201794 174.387458,202.030282 174.169167,201.936729 L174.169167,206.333708 L174.309497,206.520814 C175.369766,207.082133 176.562552,207.510912 177.887889,207.807164 C179.213226,208.103416 180.54634,208.25154 181.887269,208.25154 C184.007809,208.25154 185.863253,207.892924 187.453658,207.175683 Z M211.371978,191.318492 L211.371978,187.155394 L203.326441,187.155394 L203.326441,181.822888 L199.023015,181.822888 C198.99183,181.916441 198.960646,181.994401 198.929462,182.05677 L198.929462,186.968289 C198.929462,187.093027 198.867094,187.155394 198.742356,187.155394 L195.140576,187.155394 L195.140576,191.224939 L195.421234,191.458821 L198.929462,191.458821 L198.929462,200.439885 C198.929462,202.123843 199.210117,203.573896 199.771437,204.790088 C200.332756,206.00628 201.346234,206.87943 202.811901,207.409565 C203.965724,207.846147 205.19749,208.064434 206.507235,208.064434 C208.31593,208.064434 209.937495,207.627859 211.371978,206.754696 L211.371978,202.778704 C210.436446,203.215285 209.617867,203.558309 208.916218,203.807784 C208.214569,204.057259 207.505134,204.181995 206.787893,204.181995 C206.039467,204.181995 205.353421,204.010483 204.729732,203.667455 C203.856569,203.199689 203.38881,202.373314 203.326441,201.188307 L203.326441,191.645927 L203.560323,191.458821 L211.184872,191.458821 L211.371978,191.318492 Z M236.179049,207.783776 C236.272602,207.783776 236.33497,207.737 236.366154,207.643447 L236.366154,187.295724 C236.366154,187.20217 236.303786,187.124211 236.179049,187.061842 L232.109504,187.061842 C232.07832,187.061842 232.031544,187.069638 231.969175,187.08523 C231.906806,187.100822 231.875622,187.155394 231.875622,187.248947 L231.875622,188.324804 C231.906807,193.688522 231.922399,198.225785 231.922399,201.936729 C231.142788,202.591602 230.28523,203.121729 229.349698,203.527126 C228.414166,203.932523 227.463056,204.135219 226.496339,204.135219 C226.122126,204.135219 225.747919,204.104035 225.373706,204.041666 C224.313436,203.854559 223.385714,203.417984 222.590512,202.731927 C221.795309,202.04587 221.28857,201.219496 221.07028,200.25278 L221.07028,187.389276 L220.92995,187.061842 L216.6733,187.061842 L216.6733,200.720543 C216.6733,202.123842 217.203427,203.472547 218.263697,204.7667 C219.323967,206.060853 220.571324,206.988575 222.005807,207.549894 C223.190814,208.01766 224.50054,208.25154 225.935023,208.25154 C228.1803,208.25154 230.191664,207.721413 231.969175,206.661143 L231.969175,207.643447 C232.000359,207.737 232.047135,207.783776 232.109504,207.783776 L236.179049,207.783776 Z M262.295858,187.061842 L257.571444,187.061842 L251.771174,201.889953 L245.737021,187.061842 L241.199713,187.061842 L249.61946,207.783776 L253.642229,207.783776 C253.829335,207.409563 253.977459,207.089928 254.086604,206.82486 C254.19575,206.559793 254.608937,205.569703 255.326178,203.85456 C256.480001,201.016779 257.470091,198.615616 258.296478,196.650999 C259.122865,194.686381 260.455978,191.490027 262.295858,187.061842 Z M298.750246,187.061842 L294.025833,187.061842 L288.459444,201.28186 C288.334706,200.907647 288.139807,200.37752 287.874739,199.691463 C287.609672,199.005406 287.173097,197.836008 286.565001,196.183235 C285.956905,194.530461 285.426778,193.103796 284.974604,191.903197 C284.52243,190.702597 284.031283,189.431851 283.501148,188.090922 C283.469964,188.090922 283.43878,188.07533 283.407595,188.044146 C283.345227,188.012961 282.284973,187.997369 280.226802,187.997369 L280.226802,188.044146 L275.315283,201.562518 L275.22173,201.562518 L269.374683,187.061842 L264.790598,187.061842 L273.210346,207.783776 L277.233114,207.783776 C277.357852,207.534301 277.646303,206.824866 278.098477,205.655451 C278.550651,204.486036 279.088574,203.13733 279.712262,201.609294 C280.647794,199.208095 281.333841,197.461795 281.770422,196.37034 L286.073849,207.783776 L290.096617,207.783776 C290.283724,207.409563 290.431847,207.089928 290.540993,206.82486 C290.650138,206.559793 291.063325,205.569703 291.780567,203.85456 C292.93439,201.016779 293.92448,198.615616 294.750866,196.650999 C295.577253,194.686381 296.910367,191.490027 298.750246,187.061842 Z M322.294355,207.783776 L314.342372,196.884881 L314.389148,196.604222 L320.563629,187.295724 C320.563629,187.264539 320.579221,187.248947 320.610406,187.248947 L320.610406,187.202171 C320.610406,187.139802 320.579222,187.093026 320.516853,187.061842 L315.839216,187.061842 L311.863224,192.955665 L311.722894,192.955665 L307.13881,187.061842 L301.993408,187.061842 C301.962224,187.093026 301.946632,187.139802 301.946632,187.202171 C301.946632,187.233355 301.977816,187.280131 302.040185,187.3425 C302.133738,187.467238 302.523537,187.997365 303.209594,188.932897 C303.895651,189.868429 304.932517,191.287298 306.320223,193.189547 C307.707929,195.091796 308.5421,196.230009 308.822759,196.604222 L308.822759,196.931657 L301.759527,207.362789 C301.665973,207.518711 301.619197,207.627854 301.619197,207.690223 C301.619197,207.752592 301.650381,207.783776 301.71275,207.783776 L306.577493,207.783776 L311.535789,200.580214 L311.769671,200.580214 L316.821519,207.783776 L322.294355,207.783776 Z M349.066034,187.061842 L344.575502,187.061842 C344.294842,187.061842 344.138923,187.12421 344.107738,187.248947 C344.076554,187.311316 343.663367,188.090915 342.868164,189.587766 C342.072962,191.084617 341.2232,192.682794 340.318852,194.382344 C339.414504,196.081895 338.720661,197.383824 338.237303,198.288172 C337.753945,199.19252 337.371942,199.90975 337.091282,200.439885 L336.763847,200.580214 L330.308708,187.436053 C330.277523,187.3425 330.246339,187.280132 330.215155,187.248947 C330.152786,187.155394 330.098214,187.100822 330.051437,187.08523 C330.004661,187.069638 329.856537,187.061842 329.607062,187.061842 L325.256859,187.061842 C325.506334,187.560792 326.114421,188.761374 327.081138,190.663623 C328.047854,192.565871 329.427744,195.294466 331.220847,198.849488 C333.01395,202.404511 334.082,204.509426 334.425029,205.164299 L334.191147,205.819168 C333.910487,206.723516 333.551872,207.573278 333.11529,208.368481 C332.678708,209.163683 332.086214,210.138181 331.337788,211.292004 C331.119497,211.635033 330.901209,211.993648 330.682919,212.367861 C329.809755,213.739975 328.26615,214.426021 326.052057,214.426021 L326.052057,218.121355 L326.239163,218.30846 C328.234965,218.30846 330.059225,217.786129 331.711999,216.741452 C333.364772,215.696774 334.61213,214.316885 335.454109,212.601743 C336.358457,210.793047 337.520058,208.532211 338.938949,205.819168 C340.357839,203.106125 341.901444,200.213815 343.56981,197.142151 C345.238176,194.070487 346.469941,191.801855 347.265144,190.336188 C348.060346,188.870521 348.660637,187.779083 349.066034,187.061842 Z M370.177771,187.202171 L369.990666,187.108618 L367.090531,187.108618 C362.755898,187.077434 358.047123,187.061842 352.964065,187.061842 L352.730183,187.248947 L352.77696,191.318492 L352.964065,191.458821 C353.525385,191.458821 354.320575,191.474413 355.34966,191.505597 L359.933745,191.505597 C360.994015,191.474413 361.804797,191.458821 362.366117,191.458821 C362.303748,191.645927 361.952929,192.254014 361.313648,193.2831 C360.674368,194.312185 359.824606,195.637502 358.764336,197.259092 C357.704066,198.880681 356.682792,200.432082 355.700483,201.913341 C354.718174,203.3946 353.868412,204.69653 353.151171,205.819168 C352.589851,206.629963 352.215644,207.175682 352.028538,207.456341 L352.028538,207.783776 L353.899593,207.783776 C354.928678,207.81496 355.552357,207.830552 355.770648,207.830552 C356.612627,207.830552 358.312151,207.81496 360.869273,207.783776 C362.927443,207.752592 364.658152,207.737 366.06145,207.737 C366.248557,207.737 366.872235,207.752592 367.932505,207.783776 L369.80356,207.783776 L370.037442,207.59667 L370.084219,203.573902 L369.80356,203.386797 C368.899212,203.324428 367.901326,203.293244 366.809872,203.293244 C366.248553,203.293244 365.250667,203.308836 363.816184,203.34002 C361.851567,203.371205 360.37033,203.386797 359.372429,203.386797 L359.372429,203.152915 L360.027298,202.217387 C364.549037,195.668662 367.932494,190.66364 370.177771,187.202171 Z" id="ABCDEFGHIJKLM-NOPQRS" fill="#333333"></path>
                <g id="Group" transform="translate(138.000000, 250.000000)">
                    <circle id="Oval" fill="#C8AE5E" cx="10" cy="10" r="10"></circle>
                    <circle id="Oval-Copy-3" fill="#333333" cx="130" cy="10" r="10"></circle>
                    <circle id="Oval-Copy-2" fill="#333333" opacity="0.0700000003" cx="70" cy="10" r="10"></circle>
                </g>
            </g>
        </g>
    </g>
</svg>